<svg width="20" height="20" viewBox="0 0 20 20" fill="none" xmlns="http://www.w3.org/2000/svg">
<path fill-rule="evenodd" clip-rule="evenodd" d="M10 20C15.5228 20 20 15.5228 20 10C20 4.47715 15.5228 0 10 0C4.47715 0 0 4.47715 0 10C0 15.5228 4.47715 20 10 20ZM8.22581 12.9435C8.30645 12.9301 8.34677 12.8965 8.34677 12.8427C8.34677 12.8293 8.33333 12.8159 8.30645 12.8024C8.29301 12.789 8.26613 12.7823 8.22581 12.7823C8.1586 12.7823 8.125 12.8091 8.125 12.8629C8.125 12.9167 8.1586 12.9435 8.22581 12.9435ZM7.72177 12.8226C7.70833 12.7957 7.70833 12.7755 7.72177 12.7621C7.73522 12.7083 7.77554 12.6949 7.84274 12.7218C7.90995 12.7352 7.93683 12.7621 7.92339 12.8024C7.92339 12.8293 7.90995 12.8495 7.88306 12.8629C7.85618 12.8763 7.8293 12.8763 7.80242 12.8629L7.72177 12.8226ZM8.50806 12.8024C8.50806 12.7621 8.54167 12.7352 8.60887 12.7218C8.67607 12.7218 8.70968 12.7419 8.70968 12.7823C8.72312 12.8226 8.69624 12.8562 8.62903 12.8831H8.54839C8.53495 12.8696 8.52151 12.8427 8.50806 12.8024ZM7.41935 5.64516C8.17204 5.21505 9.0121 5 9.93952 5C10.8535 5 11.7003 5.21505 12.4798 5.64516C13.2594 6.07527 13.871 6.65995 14.3145 7.39919C14.7715 8.16532 15 9.00538 15 9.91935C15 11.0349 14.6841 12.0363 14.0524 12.9234C13.4341 13.797 12.621 14.4019 11.6129 14.7379C11.5054 14.7648 11.418 14.7513 11.3508 14.6976C11.297 14.6438 11.2702 14.5766 11.2702 14.496V12.8024C11.2702 12.3723 11.1559 12.0632 10.9274 11.875C11.4247 11.8212 11.7944 11.754 12.0363 11.6734C12.4126 11.539 12.7016 11.3374 12.9032 11.0685C13.1317 10.7191 13.246 10.2419 13.246 9.6371C13.246 9.38172 13.1989 9.15995 13.1048 8.97177C13.0376 8.83737 12.9099 8.66935 12.7218 8.46774C12.7755 8.33333 12.8091 8.17204 12.8226 7.98387C12.836 7.68817 12.789 7.39247 12.6815 7.09677C12.547 7.05645 12.3589 7.08333 12.1169 7.17742C11.9556 7.24462 11.7675 7.33871 11.5524 7.45968L11.2903 7.64113C10.8737 7.52016 10.4435 7.45968 10 7.45968C9.56989 7.45968 9.15323 7.52016 8.75 7.64113L8.4879 7.45968C8.27285 7.33871 8.07796 7.24462 7.90323 7.17742C7.66129 7.08333 7.47984 7.05645 7.35887 7.09677C7.2379 7.39247 7.19086 7.68817 7.21774 7.98387C7.21774 8.17204 7.24462 8.32661 7.29839 8.44758C7.1371 8.64919 7.01613 8.83737 6.93548 9.0121C6.86828 9.17339 6.83468 9.38172 6.83468 9.6371C6.83468 10.2419 6.9422 10.7124 7.15726 11.0484C7.34543 11.3306 7.62769 11.539 8.00403 11.6734C8.24597 11.754 8.60887 11.8212 9.09274 11.875C8.91801 12.0363 8.81048 12.2648 8.77016 12.5605C8.54167 12.668 8.31989 12.7083 8.10484 12.6815C7.75538 12.6546 7.48656 12.4731 7.29839 12.1371C7.21774 11.9892 7.11022 11.8683 6.97581 11.7742C6.88172 11.7204 6.78091 11.6734 6.67339 11.6331L6.53226 11.6129C6.38441 11.6129 6.30376 11.6398 6.29032 11.6935C6.29032 11.7339 6.32393 11.7809 6.39113 11.8347L6.49194 11.9153C6.58602 11.9691 6.68011 12.0565 6.77419 12.1774C6.85484 12.2715 6.92204 12.379 6.97581 12.5L7.05645 12.6613C7.12366 12.8629 7.25134 13.0175 7.43952 13.125C7.60081 13.2191 7.7957 13.2796 8.02419 13.3065C8.18548 13.3199 8.35349 13.3132 8.52823 13.2863L8.75 13.2661L8.77016 14.496C8.77016 14.5766 8.73656 14.6438 8.66936 14.6976C8.61559 14.7513 8.53495 14.7648 8.42742 14.7379C7.40591 14.4019 6.5793 13.797 5.94758 12.9234C5.31586 12.0363 5 11.0349 5 9.91935C5 9.00538 5.21505 8.17204 5.64516 7.41935C6.07527 6.66667 6.66667 6.07527 7.41935 5.64516ZM6.97581 12.0565C6.93548 12.0161 6.92876 11.9825 6.95565 11.9556C6.98253 11.9288 7.01613 11.9355 7.05645 11.9758C7.09677 12.0161 7.10349 12.0497 7.07661 12.0766C7.04973 12.1035 7.01613 12.0968 6.97581 12.0565ZM6.875 11.875C6.86156 11.9019 6.82796 11.9019 6.77419 11.875C6.73387 11.8481 6.72043 11.8212 6.73387 11.7944C6.76075 11.7675 6.79435 11.7675 6.83468 11.7944C6.875 11.8078 6.88844 11.8347 6.875 11.875ZM7.37903 12.5605C7.37903 12.5336 7.38575 12.5134 7.39919 12.5C7.41263 12.4866 7.4328 12.4866 7.45968 12.5C7.48656 12.5 7.50672 12.5134 7.52016 12.5403C7.54704 12.5538 7.56048 12.5739 7.56048 12.6008C7.57393 12.6277 7.57393 12.6478 7.56048 12.6613C7.52016 12.7016 7.47312 12.6949 7.41935 12.6411C7.39247 12.6142 7.37903 12.5874 7.37903 12.5605ZM7.15726 12.3387C7.13038 12.2715 7.13038 12.2312 7.15726 12.2177C7.18414 12.2043 7.2043 12.2043 7.21774 12.2177C7.24462 12.2177 7.26478 12.2312 7.27823 12.2581C7.31855 12.3118 7.31855 12.3521 7.27823 12.379C7.26478 12.3925 7.24462 12.3925 7.21774 12.379C7.2043 12.3656 7.18414 12.3521 7.15726 12.3387Z" fill="white"/>
</svg>
