<svg width="20" height="20" viewBox="0 0 20 20" fill="none" xmlns="http://www.w3.org/2000/svg">
<path fill-rule="evenodd" clip-rule="evenodd" d="M10 20C15.5228 20 20 15.5228 20 10C20 4.47715 15.5228 0 10 0C4.47715 0 0 4.47715 0 10C0 15.5228 4.47715 20 10 20ZM7.78571 8.64877V14H6.125V8.64877H7.78571ZM7.91071 6.94855C7.91071 7.48546 7.48214 7.93289 6.94643 7.93289C6.42857 7.93289 6 7.48546 6 6.94855C6 6.42953 6.42857 6 6.94643 6C7.48214 6 7.91071 6.42953 7.91071 6.94855ZM14 14H13.9821H12.3393V11.4049C12.3393 10.7785 12.3214 9.99105 11.4643 9.99105C10.6071 9.99105 10.4821 10.6532 10.4821 11.3512V14H8.82143V8.64877H10.4107V9.38255H10.4286C10.6607 8.97092 11.1964 8.52349 12 8.52349C13.6786 8.52349 14 9.63311 14 11.0649V14Z" fill="white"/>
</svg>
