<svg width="20" height="20" viewBox="0 0 20 20" fill="none" xmlns="http://www.w3.org/2000/svg">
<path fill-rule="evenodd" clip-rule="evenodd" d="M10 20C15.5228 20 20 15.5228 20 10C20 4.47715 15.5228 0 10 0C4.47715 0 0 4.47715 0 10C0 15.5228 4.47715 20 10 20ZM13.9844 8.25C13.9844 8.13462 13.9779 8.05128 13.9648 8C14.3685 7.70513 14.7135 7.35256 15 6.94231C14.6094 7.10897 14.2188 7.21795 13.8281 7.26923C14.2708 7 14.5703 6.62821 14.7266 6.15385C14.3229 6.38462 13.8867 6.54487 13.418 6.63462C13.2227 6.44231 12.9948 6.28846 12.7344 6.17308C12.487 6.05769 12.2135 6 11.9141 6C11.5495 6 11.2109 6.08974 10.8984 6.26923C10.5859 6.44872 10.3385 6.69872 10.1562 7.01923C9.97396 7.32692 9.88281 7.66026 9.88281 8.01923C9.88281 8.17308 9.89583 8.32692 9.92188 8.48077C9.08854 8.44231 8.30078 8.23718 7.55859 7.86538C6.82943 7.49359 6.21094 6.99359 5.70312 6.36538C5.50781 6.6859 5.41016 7.02564 5.41016 7.38462C5.41016 7.73077 5.49479 8.05128 5.66406 8.34615C5.83333 8.64103 6.05469 8.88462 6.32812 9.07692C6.0026 9.0641 5.69661 8.97436 5.41016 8.80769V8.84615C5.41016 9.32051 5.56641 9.74359 5.87891 10.1154C6.19141 10.4872 6.58203 10.7244 7.05078 10.8269C6.86849 10.8654 6.6862 10.8846 6.50391 10.8846C6.38672 10.8846 6.26302 10.8782 6.13281 10.8654C6.26302 11.2628 6.4974 11.5962 6.83594 11.8654C7.1875 12.1218 7.59115 12.25 8.04688 12.25C7.29167 12.8269 6.4388 13.1154 5.48828 13.1154C5.30599 13.1154 5.14323 13.109 5 13.0962C5.95052 13.6987 6.9987 14 8.14453 14C9.34245 14 10.4036 13.6987 11.3281 13.0962C12.1745 12.5577 12.832 11.8333 13.3008 10.9231C13.7565 10.0641 13.9844 9.17308 13.9844 8.25Z" fill="white"/>
</svg>
