<svg xmlns="http://www.w3.org/2000/svg" width="32768" height="3859" fill="none"><path fill="#0C0C0C" d="M1973.9 3844.15c-281.28 0-541.7-48.74-781.27-145.71-239.569-97.22-448.898-231.72-627.727-403.5-178.83-171.77-317.774-374.04-416.574-606.81C49.53 2455.36 0 2201.74 0 1927.52c0-274.21 48.487-521.57 145.722-752.52 97.236-230.942 235.138-431.389 413.967-601.599 178.829-169.95 387.116-303.668 625.121-400.893 237.74-97.226 497.39-145.709 778.66-145.709 281.28 0 553.7 46.137 786.49 137.889 232.53 92.012 437.43 217.911 614.69 377.434L2739.53 1172.4c-90.46-97.23-199.68-173.604-328.2-229.124-128.52-55.52-277.89-83.411-447.86-83.411-145.72 0-282.06 25.284-408.75 75.591-126.69 50.307-234.35 122.514-322.99 216.084-88.63 93.84-157.97 206.71-208.28 338.6-50.316 131.89-75.602 277.86-75.602 437.38 0 159.53 25.025 315.92 75.602 447.82 50.31 131.89 119.91 244.76 208.28 338.59 88.64 93.84 195.26 166.56 320.38 218.7 125.13 52.13 262.25 78.19 411.36 78.19 173.62 0 325.6-26.84 455.68-80.8 130.34-53.7 244-129.29 341.23-226.51l625.13 625.06c-180.66 159.78-384.51 285.68-612.09 377.69-227.58 92.01-494 137.89-799.52 137.89ZM8151.07 3781.59V89.096h932.21V3781.59h-932.21Zm744.78 0v-802.05h1776.05v802.05H8895.85ZM11244.9 3781.59V89.096h932.2V3781.59h-932.2Zm744.7 0v-802.05h1776.1v802.05h-1776.1ZM13968.8 3781.59 15406.4 89.096h901.2l1421.8 3692.494h-979.1L15682.5 677.664h333.4L14932.5 3781.59h-963.7Zm875.1-645.91v-739.49h2041.7v739.49h-2041.7ZM18208.5 3781.59V89.096h916.6V3781.59h-916.6Zm739.6 0v-692.57h776c139 0 251.9-41.7 338.7-125.12 86.8-83.41 130.1-189.23 130.1-317.74 0-90.19-20.1-167.34-60-231.72-39.9-64.13-94.6-115.48-164-153.53-69.6-38.06-154.6-57.35-255.2-57.35h-765.6v-666.5h708.3c125.1 0 226.5-31.28 304.7-93.84 78.2-62.56 117.3-156.13 117.3-281.25s-39.1-223.907-117.3-286.465c-78.2-62.559-178-93.838-299.5-93.838h-713.5V89.097h937.4c232.5 0 432.2 43.529 599.1 130.329 166.5 86.799 295.1 203.053 385.3 349.022 90.2 145.709 135.5 310.706 135.5 494.732 0 242.93-84.2 446.25-252.6 609.42-168.4 163.17-412.4 265.61-731.7 307.32v-317.75c350.6 41.71 621.4 155.36 812.5 341.21 190.8 185.85 286.5 419.14 286.5 700.39 0 204.87-52.1 389.68-156.1 554.68-104.3 165-250.8 293.5-440.1 385.51-189.2 92.02-412.4 137.89-669.2 137.89h-906.4l-.2-.26ZM22838.8 3781.59V89.096h932.2V3781.59h-932.2Zm744.8 0v-802.05h1776v802.05h-1776ZM25562.7 3781.59 27000.1 89.096h901.2l1421.8 3692.494h-979.2L27276.2 677.664h333.4L26526.2 3781.59h-963.5Zm875.1-645.91v-739.49h2041.7v739.49h-2041.7ZM29802.2 3781.59V89.096h916.8V3781.59h-916.8Zm739.6 0v-692.57h776c139 0 251.8-41.7 338.6-125.12 86.8-83.41 130.4-189.23 130.4-317.74 0-90.19-20.1-167.34-60-231.72-39.9-64.13-94.6-115.48-163.9-153.53-69.6-38.06-154.6-57.35-255.3-57.35H30542v-666.5h708.3c125.1 0 226.5-31.28 304.7-93.84 78.2-62.56 117.1-156.13 117.1-281.25s-39.1-223.907-117.1-286.465c-77.9-62.559-178-93.838-299.5-93.838H30542V89.097h937.4c232.6 0 432.3 43.529 599.1 130.329 166.6 86.799 295.1 203.053 385.5 349.022 90.2 145.709 135.3 310.706 135.3 494.732 0 242.93-84.2 446.25-252.6 609.42-168.4 163.17-412.4 265.61-731.7 307.32v-317.75c350.6 41.71 621.5 155.36 812.5 341.21 190.9 185.85 286.5 419.14 286.5 700.39 0 204.87-52.1 389.68-156.1 554.68-104.3 165-251.1 293.5-440 385.51-189.3 92.02-412.4 137.89-669.2 137.89h-906.4l-.5-.26ZM7336.43 1276.92c-95.41-224.17-228.36-420.965-399.1-589.872-170.75-168.907-371.74-298.715-602.71-389.164-230.96-90.448-483.83-135.542-758.33-135.542-274.5 0-527.36 45.094-758.33 135.542-230.96 90.449-431.95 220.257-602.7 389.164-170.75 169.168-303.69 364.922-399.11 587.522-95.41 222.61-143.11 464.5-143.11 725.68 0 261.18 48.49 504.63 145.72 730.62 96.98 226 231.75 422.53 404.32 590.14 172.32 167.34 374.08 297.93 605.05 391.77 230.97 93.57 483.83 140.49 758.33 140.49 274.5 0 521.37-46.13 750.77-138.15 229.4-92.01 429.35-222.6 600.1-391.77 170.74-168.9 303.69-365.7 399.1-590.13 95.41-224.17 143.12-466.84 143.12-728.02s-47.71-503.85-143.12-728.02v-.26Zm-2253.09 146.23-757.03 583.88 757.03 583.87v402.72l-1034.65-840.63v-291.93l1034.65-840.63v402.72Zm471.58 1571.51H5226.2l356.61-1971.62h323.77l-351.92 1971.62h.26Zm1531.78-841.41-1034.66 840.63v-402.72l757.03-583.87-757.03-583.88v-402.72l1034.66 840.63v291.93Z"/></svg>
