<svg viewBox="0 0 11730 12905" fill="none" xmlns="http://www.w3.org/2000/svg">
<g clip-path="url(#clip0_35_17)">
<path d="M11739 12905H1.46875V0H11739V12905ZM822.752 12083.5H10917.5V821.478H822.752V12083.5Z" fill="#0C0C0C"/>
<path d="M1965.46 7865.44V5046.72H2677.16V7865.44H1965.46ZM2533.97 7865.44V7253.23H3889.62V7865.44H2533.97Z" fill="#0C0C0C"/>
<path d="M4368.92 7865.44L5466.29 5046.72H6154.12L7239.56 7865.44H6492.07L5677.03 5495.92H5931.45L5104.48 7865.44H4368.92ZM5036.92 7372.37V6807.89H6595.42V7372.37H5036.92Z" fill="#0C0C0C"/>
<path d="M7713.35 7865.44V5046.72H8413.11V7865.44H7713.35ZM8277.82 7865.44V7336.57H8870.19C8976.11 7336.57 9062.39 7304.82 9128.66 7241.12C9194.93 7177.42 9227.97 7096.65 9227.97 6998.62C9227.97 6929.78 9212.73 6870.86 9182.26 6821.66C9151.79 6772.65 9109.93 6733.55 9057.07 6704.36C9004.02 6675.17 8939.03 6660.67 8862.3 6660.67H8277.82V6151.81H8818.43C8913.88 6151.81 8991.35 6127.95 9051.01 6080.22C9110.67 6032.49 9140.41 5960.9 9140.41 5865.44C9140.41 5769.98 9110.67 5694.54 9051.01 5646.81C8991.35 5599.08 8915.17 5575.22 8822.47 5575.22H8277.82V5046.35H8993.37C9170.88 5046.35 9323.42 5079.58 9450.64 5145.66C9577.85 5211.93 9675.87 5300.78 9744.9 5412.02C9813.73 5523.27 9848.24 5649.19 9848.24 5789.81C9848.24 5975.4 9784 6130.33 9655.5 6254.98C9527 6379.62 9340.68 6457.82 9096.9 6489.58V6247.08C9364.54 6278.84 9571.24 6365.67 9717.18 6507.57C9862.93 6649.47 9935.81 6827.53 9935.81 7042.31C9935.81 7198.71 9895.97 7339.88 9816.49 7465.81C9737 7591.74 9625.03 7689.76 9480.56 7760.07C9336.09 7830.38 9165.74 7865.44 8969.69 7865.44H8277.82Z" fill="#0C0C0C"/>
<path d="M1932.97 11416.2V8597.52H2644.67V11416.2H1932.97ZM2501.48 11416.2V10804H3857.13V11416.2H2501.48Z" fill="#0C0C0C"/>
<path d="M4336.61 11416.2L5433.98 8597.52H6121.81L7207.25 11416.2H6459.76L5644.72 9046.72H5899.14L5072.17 11416.2H4336.61ZM5004.62 10923.2V10358.7H6563.11V10923.2H5004.62Z" fill="#0C0C0C"/>
<path d="M7723.99 11416.2V8597.52H8423.76V11416.2H7723.99ZM8288.47 11416.2V10887.4H8880.84C8986.76 10887.4 9073.04 10855.6 9139.3 10791.9C9205.57 10728.4 9238.61 10647.5 9238.61 10549.4C9238.61 10480.6 9223.38 10421.7 9192.91 10372.5C9162.43 10323.4 9120.58 10284.3 9067.71 10255.2C9014.66 10226 8949.68 10211.5 8872.95 10211.5H8288.47V9702.61H8829.07C8924.53 9702.61 9002 9678.75 9061.66 9631.02C9121.31 9583.29 9151.05 9511.7 9151.05 9416.24C9151.05 9320.79 9121.31 9245.34 9061.66 9197.61C9002 9149.88 8925.81 9126.02 8833.11 9126.02H8288.47V8597.15H9004.01C9181.52 8597.15 9334.07 8630.38 9461.28 8696.46C9588.49 8762.73 9686.52 8851.58 9755.54 8962.82C9824.38 9074.07 9858.89 9200 9858.89 9340.61C9858.89 9526.2 9794.64 9681.14 9666.14 9805.78C9537.65 9930.42 9351.33 10008.6 9107.55 10040.4V9797.89C9375.19 9829.64 9581.89 9916.47 9727.82 10058.4C9873.58 10200.3 9946.45 10378.3 9946.45 10593.1C9946.45 10749.5 9906.62 10890.7 9827.13 11016.6C9747.65 11142.5 9635.67 11240.6 9491.2 11310.9C9346.74 11381.2 9176.38 11416.2 8980.33 11416.2H8288.47Z" fill="#0C0C0C"/>
<path d="M3300.74 4297.38C3085.96 4297.38 2887.34 4260.3 2704.32 4186.14C2521.49 4111.98 2361.79 4009.18 2225.21 3878.11C2088.64 3746.86 1982.72 3592.47 1907.09 3414.96C1831.46 3237.45 1793.83 3043.96 1793.83 2834.51C1793.83 2625.06 1830.91 2436.35 1905.07 2259.94C1979.23 2083.71 2084.6 1930.61 2221.17 1800.83C2357.75 1671.04 2516.72 1568.98 2698.27 1494.63C2879.82 1420.47 3077.89 1383.39 3292.66 1383.39C3507.44 1383.39 3715.42 1418.63 3892.93 1488.76C4070.44 1559.06 4226.84 1655.07 4362.13 1776.96L3885.03 2258.1C3816.01 2183.94 3732.67 2125.56 3634.65 2083.16C3536.62 2040.75 3422.63 2019.64 3292.66 2019.64C3181.42 2019.64 3077.34 2038.92 2980.59 2077.28C2883.85 2115.83 2801.62 2170.72 2734.06 2242.31C2666.51 2313.91 2613.46 2400 2575.09 2500.78C2536.73 2601.56 2517.45 2712.8 2517.45 2834.69C2517.45 2956.59 2536.73 3075.91 2575.09 3176.69C2613.46 3277.47 2666.51 3363.56 2734.06 3435.15C2801.62 3506.75 2883.12 3562.37 2978.58 3602.2C3074.03 3642.04 3178.66 3661.86 3292.66 3661.86C3425.2 3661.86 3541.21 3641.3 3640.52 3600.18C3739.83 3559.06 3826.66 3501.42 3901 3427.26L4378.1 3904.36C4240.24 4026.25 4084.57 4122.44 3910.92 4192.56C3737.26 4262.69 3533.87 4297.93 3300.55 4297.93L3300.74 4297.38Z" fill="#0C0C0C"/>
<path d="M8015.87 4249.66V1430.93H8727.56V4249.66H8015.87ZM8584.38 4249.66V3637.45H9940.03V4249.66H8584.38Z" fill="#0C0C0C"/>
<path d="M7437.44 2257.55C7361.81 2080.04 7256.63 1924.18 7121.34 1790.36C6986.23 1656.54 6827.08 1553.74 6644.25 1482.15C6461.41 1410.55 6261.14 1374.76 6043.98 1374.76C5826.82 1374.76 5626.54 1410.55 5443.71 1482.15C5260.88 1553.74 5101.72 1656.54 4966.62 1790.36C4831.51 1924.18 4726.14 2079.3 4650.51 2255.53C4575.07 2431.76 4537.25 2623.22 4537.25 2830.1C4537.25 3036.99 4575.62 3229.74 4652.53 3408.54C4729.45 3587.52 4836.1 3743.18 4972.49 3875.72C5109.07 4008.26 5268.77 4111.61 5451.6 4185.77C5634.44 4259.93 5834.53 4297.02 6051.87 4297.02C6269.22 4297.02 6464.72 4260.49 6646.27 4187.61C6827.81 4114.73 6986.23 4011.38 7121.34 3877.56C7256.45 3743.73 7361.81 3588.07 7437.44 3410.37C7513.07 3232.86 7550.71 3040.66 7550.71 2833.96C7550.71 2627.26 7512.89 2435.06 7437.44 2257.37V2257.55ZM5692.08 2419.64L5152.76 2835.8L5692.08 3251.95V3538.87L4954.87 2939.88V2731.71L5692.08 2132.72V2419.64ZM6028.01 3539.42H5793.78L6048.02 2134.56H6278.76L6028.01 3539.42ZM7119.32 2939.88L6382.11 3538.87V3251.95L6921.43 2835.8L6382.11 2419.64V2132.72L7119.32 2731.71V2939.88Z" fill="#0C0C0C"/>
</g>
<defs>
<clipPath id="clip0_35_17">
<rect width="11730" height="12905" fill="white"/>
</clipPath>
</defs>
</svg>
